<svg version="1.2" xmlns="http://www.w3.org/2000/svg" viewBox="0 0 656 165">
    <path fill="currentColor"
        d="m449.6 116.3l-5.4-5.6 0.1-46.9v-14.3q-1-4.7-3.6-6.8-2.1-1.6-5.3-1.9v-0.1h-2.6l-93.1 0.2 5.6 5.7-0.5 60.7q0.9 4.8 3.6 6.8 2.2 1.8 6.6 2.1 4.4 0.2 7.1-1.8 2.7-2.1 3.6-6.8l-0.1-59.1h18.6l-0.3 58.9q1 4.8 3.7 6.8 2.1 1.8 5.8 2.1v0.2h0.7q4.5 0 7.2-2 2.6-2.1 3.6-6.8v-7.4h0.1l0.1-51.8h18.7v2.9h0.1l-0.1 41.7v14.3q1 4.8 3.6 6.8 2.7 2.1 7.2 2.1zm-151.5-21.5l-21.6 13.1h-17l41.9-67.2q-9.4-0.2-13.9-0.2h-49.5v21.9l21.4-13.6h17.2l-43.7 67.1q6.8 0.2 15.7 0.2l49.6 0.1zm0.2 21.3h-0.1v0.1zm42.7-96.3l0.7-0.4 2.1-0.2 0.8-0.4c0 0 1.7-0.2 1.9-0.2 0.2 0 1.4-0.7 1.4-0.7v-0.2l1.4-0.3 1.5-0.4-0.1-0.5 1.1-0.6 0.6-0.5-0.5-0.3-2.3-0.1 0.6-0.5-0.2-0.4-3.3-0.3 0.5-0.4v-0.3l-4.6-1.1h-3.7v-0.3l-0.7-0.1h-1.2l-2 0.2-2.7 0.5-1.5-0.1-2 0.7-4.1 1.9-0.5-1.7-0.8-1.4 0.2-0.1-0.3-0.8 0.2-0.5-1-0.9 0.3-0.4-1.3-1.2 0.2-0.5-0.7-0.3c0 0-0.6-0.2-0.7-0.3-0.1 0-1.2-0.2-1.2-0.2l-2.1-0.1-1.2 0.2-0.6 0.5-0.5 0.4-0.6 0.1-1.1 0.7-0.6 0.8 0.3 1 0.4 0.3 0.1-0.4 1.9 0.2 0.5 0.3 0.8 0.1 0.3 1.1 0.4 0.5 0.5-0.2 0.3 0.3c0 0-0.1 2.1-0.1 2.1 0 0.1-0.5 1.4-0.5 1.4v0.2l-1.5-1.2-4-2-1.9-0.7h-1.4l-2.5-0.5-2.1-0.2h-0.9l-0.7 0.1v0.3h-3.4l-4.3 1.1-0.1 0.4 0.6 0.4-3.2 0.4-0.1 0.4 0.5 0.5h-2.2l-0.4 0.3 0.5 0.6 1.1 0.6-0.1 0.6 1.4 0.4 1.4 0.3-0.1 0.2c0 0 1.2 0.8 1.3 0.8 0.2 0 1.8 0.1 1.8 0.1l0.7 0.4 2 0.2 0.7 0.5 1.6 0.3-0.1 0.2 2.7 0.3-0.7 0.3 2 0.2-1 0.8 0.6 0.5 1.5 0.2-1 0.2 0.1 0.5c0 0 0.5 0.3 0.7 0.4 0.1 0 1.6 0.1 1.6 0.1l-1.2 0.2 0.1 1.1c0 0 0.8 0.3 1 0.3 0.1 0 1.3-0.2 1.3-0.2l-0.7 0.3 0.2 0.7c0 0 0.5 0.3 0.6 0.4 0.1 0 0.7-0.2 0.7-0.2l-0.6 0.3v0.6l0.6 0.4 1.1-0.2-0.8 0.5 0.9 0.8 1.1-0.8-0.3 0.7 1.1 0.4 1.7-1.9c0 0-0.4 2-0.4 2.2 0 0.2 0.2 0.8 0.2 0.9 0 0 1 1.1 1 1.1l-1.8 1.1-0.2 0.5c0 0-0.1 0.7-0.1 0.9 0.1 0 0.2 0.2 0.2 0.3-1.2 1.4-1.9 3.1-1.9 5.1 0 0.3 0 0.7 0.1 1.1h-2.7l0.4 3.7 2.5 3-1.9 46.9-1.6 0.2v2.3l1.5 0.2-0.3 6.8-1.9 0.7v7.7l-3.9 4h31.4l-3.9-4v-7.7l-1.9-0.7-0.3-6.8 1.5-0.2v-2.3l-1.6-0.2-1.9-46.9 2.4-3 0.5-3.7h-3c0.1-0.4 0.1-0.8 0.1-1.1 0-1.2-0.2-2.2-0.7-3.2h0.4l0.2-0.6c0 0-0.4-1.1-0.4-1.1-0.1 0-1.3-0.8-1.3-0.8l-1-0.7 0.2-0.2 0.9-0.9 0.2-1.7-0.4-1.8-0.7-2.8 0.2 0.3 0.7 1.6 0.8 1.5 1.3-0.5-0.2-0.9 1.1 0.7 1-0.8-0.8-0.4 1.1 0.2 0.6-0.4v-0.6l-0.6-0.3c0 0 0.7 0.2 0.7 0.2 0.1 0 0.7-0.4 0.7-0.4l0.1-0.6-0.7-0.3c0 0 1.4 0.2 1.5 0.2 0.1 0 1-0.3 1-0.3l0.1-1.1-1.2-0.2c0 0 1.5 0 1.7-0.1 0.1 0 0.7-0.4 0.7-0.4l0.1-0.4-1.1-0.2 1.7-0.2 0.6-0.5-1.1-0.7 2.2-0.2-0.8-0.4 2.9-0.2-0.1-0.2zm-14.1 16.2q0 0-0.1 0zm126.4 80.3v-0.2h-0.1zm198.6-66.9q-1-4.7-3.6-6.8-2.7-2-7.2-2h-38.8q-4.4 0-7.1 2-2.7 2.1-3.6 6.8 0.1 6.5 0.1 29 0.1 22.5-0.1 30.4 1.8 7.7 10.7 7.7h38.8q9 0 10.8-7.7-0.1-15.8-0.1-30.4 0-14.5 0.1-29zm-38.5 58.5l-0.2-59h17l0.1 59zm-96.2 8.4h26.1l0.2-33.3h5.3l13.4 33.3h26l-5.5-5.7-14.6-31.6 1.5-4 13.1-28.5 5.5-5.7h-26l-12.9 34.2-5.8-0.1v-34.2h-26.1l5.6 5.7-0.2 64.2zm-3.5-7.8q-0.2-24.9-0.2-25.1-0.9-4.7-3.6-6.8-2.7-2.1-7.1-2.1l-27.9 0.2v-25.9h17.2l21.4 13.6v-21.8h-49.5q-4.5 0-7.2 2-2.7 2.1-3.6 6.8 0 25.2 0 26.1 1.8 7.6 10.8 7.6h28v24.9h-17l-21.6-13.1-0.1 21.3 49.6-0.1q8.9 0 10.8-7.6zm-436.4-29.6l-4.2-12.2 13.4 12.2 13.7 0.1-15.5-28.8 27.7 28.8 25.3 0.1-24.5-24.3 26.4-9.8c-5.4-2.5-10.2-4.7-17-6.2l-24.6 8.8 13.4-10.3c-3.4-0.3-6.7-0.4-10-0.4-11.5 0-23 1.9-36 5.9l10.7 6.2-34.9 10.5 24.4 6.8-37.9 12.4zm11.6 49.9c7 0 14.2-0.6 21.8-1.9l-12.1-10.4 22.7 8.6c6.7-1.6 12.3-3 17.3-4.9l-25.7-11.1 24.2-22.2h-25.1l-29.3 29.4 17.2-29.4h-14.3l-15.7 12.9 6.6-12.9h-68.5l48.5 13.8-24.7 7 26.5 8.6-5.4 6.7c11.9 3.9 23.7 5.8 36 5.8zm53.3 20.8l1.7-24.4c-5.1 1.8-10.9 3.4-18.7 5.2l-4.1 22.1-4.4-20.3c-20.4 3.7-41.7 4.3-62 1.5 6.1 5.9 13.8 11.1 22.9 15.6 7.9-0.9 18.5-2.9 18.6-3l2.2-0.4-8.9 8.3c12.4 5.1 27.1 8.1 39.5 8.1q2.3 0 4.5-0.1 1.5-0.1 3.1-0.2c2.1-0.1 4.2-0.2 6.2-0.4 7-4.4 14.5-11 20-17.5zm40.4-50.6c0.6-4 1-8.1 1.2-12.2h-34.7l-22.4 20.1 22 9.1c4.8-2.2 9.5-4.7 13.7-7.3 7.8-4.8 14-8.6 19.7-9.7q0.2 0 0.5 0zm-23 58.8c6.1-2.2 12-5.1 17.5-8.7l-4.3-5.9c-3.5 4.7-8.3 10.1-13.2 14.6zm29.1-97.3q7.2 0.2 11.1-3.5c2.3-2.2 3.9-5.5 4.6-9.8-5.1-10.3-12.7-19.6-21.8-26.8l-5.7 8.7c6.4 10.2 9.4 20 11.8 31.4zm-6.1 6.6q-0.3 0-0.5 0c-5.7-1.1-11.9-4.9-19.7-9.7-4.4-2.7-9.3-5.7-14.6-8.5l-22 7.9 23.9 22.3 34.1 0.2c-0.2-4.1-0.6-8.2-1.2-12.2zm-64.9-36.4l3.8-16.9 4.3 18.7c6.4 1.6 12.6 3.9 19 6.9l-1-22.7 20.1 6.7c-6.4-7.6-14.7-15-22.1-19.6-2.8-0.3-5.5-0.4-8.2-0.4-14.9 0-31.2 3.2-45.9 9.1l7.2 6.4h-20.7c-8.8 4.9-15.9 10.8-23.4 18 14.3-6.3 34.8-7.6 50-7.6 5.6 0 11.2 0.5 16.9 1.4zm63.3 28.6c-2.8-11.8-6.3-20.4-11.7-28.5l-18.2-6 1.5 18.5c4.9 2.6 9.2 5.2 13.6 7.9 5.7 3.6 10.7 6.6 14.8 8.1zm-8.2-36.2l4.4-6.6c-5.8-3.8-12.1-6.9-18.7-9.1 5 4.5 10.4 10.5 14.3 15.7zm-23.4 118.6l20.6-6.8c5.8-8.8 8.8-18.6 11-28.1-4.1 1.5-9.3 4.7-14.8 8.1-3 1.8-7.8 4.4-13.5 6.3zm39.3-36.1c-2.2 10.3-5.1 21.2-11.6 31.7l5.9 7.5c8.9-7.2 16.3-16.3 21.3-26.4-0.7-4-2.3-7.2-4.5-9.3-2.6-2.5-6.3-3.7-11.1-3.5zm16.1-43.4c-3.7 3.6-8.7 5.5-14.8 5.6 0.5 3.7 0.9 7.6 1 11.5h21.7c-0.3-7.6-1.7-15-4.1-22q-1.6 2.8-3.8 4.9zm-14.8 36.1c6.1 0.1 11.1 2 14.8 5.6q2.1 2 3.7 4.7c2.4-7 3.8-14.3 4.1-21.8h-21.6c-0.1 3.9-0.5 7.8-1 11.5zm318.4 39.9h6.7v18.7h6.3v-18.7h6.7v-5.4h-19.7zm-29.1 1.3c0-1 0.8-1.6 2.6-1.6 2.4 0 5 0.8 7.1 2.5l3.4-4.7c-2.6-2.2-6-3.3-9.9-3.3-6.2 0-9.6 3.6-9.6 7.6 0 9.4 13.7 6.7 13.7 9.9 0 1.2-1.3 1.9-3.4 1.9-3.3 0-6-1.4-7.8-3.2l-3.3 4.9c2.5 2.3 5.9 3.8 10.8 3.8 6.5 0 10-3.2 10-8 0-9-13.6-6.8-13.6-9.8zm117-7.2c-7.4 0-12.9 5.2-12.9 12.5 0 7.4 5.5 12.5 12.9 12.5 7.4 0 13-5.1 13-12.5 0-7.3-5.6-12.5-13-12.5zm0 19.5c-3.9 0-6.6-3.1-6.6-7 0-3.9 2.7-7 6.6-7 4 0 6.6 3.1 6.6 7 0 3.9-2.6 7-6.6 7zm-40.2-1.6l-6-17.5h-7.1l9.1 24.2h7.9l9.1-24.2h-7.1zm-159.4 6.8h17.8v-5.5h-11.5v-4.1h11.2v-5.4h-11.2v-3.8h11.5v-5.4h-17.8zm-103.6-24.2h-12.1v24.2h6.3v-8.1h5.8c5.5 0 8.5-3.7 8.5-8.1 0-4.3-3-8-8.5-8zm-0.9 10.6h-4.9v-5.2h4.9c1.7 0 3 1 3 2.6 0 1.7-1.3 2.6-3 2.6zm47.2-2.6c0-4.5-3.1-8-8.4-8h-12.1v24.2h6.2v-8.1h3.2l4 8.1h7.2l-4.9-8.9c2.2-0.8 4.8-3.1 4.8-7.3zm-9.4 2.6h-4.9v-5.2h4.9c1.7 0 3 0.9 3 2.6 0 1.7-1.3 2.6-3 2.6zm118.8 2.7l-9.8-13.3h-6.4v24.2h6.2v-14l10.2 14h6.1v-24.2h-6.3zm-81.4 4.1l-5.9-17.4h-7.1l9.1 24.2h7.9l9.1-24.2h-7.1z" />
</svg>
