<?xml version="1.0" encoding="UTF-8" standalone="no"?>
<svg
   version="1.2"
   viewBox="0 0 230 170"
   id="svg1"
   sodipodi:docname="logo_basket.svg"
   width="230"
   height="170"
   xmlns:inkscape="http://www.inkscape.org/namespaces/inkscape"
   xmlns:sodipodi="http://sodipodi.sourceforge.net/DTD/sodipodi-0.dtd"
   xmlns="http://www.w3.org/2000/svg"
   xmlns:svg="http://www.w3.org/2000/svg">
  <sodipodi:namedview
     id="namedview1"
     borderopacity="0.25"
     inkscape:showpageshadow="2"
     inkscape:pageopacity="0.0"
     inkscape:pagecheckerboard="0"
     inkscape:zoom="1.6097561"
     inkscape:cx="319.61364"
     inkscape:cy="79.515152"
     inkscape:window-width="2544"
     inkscape:window-height="1371"
     inkscape:window-x="8"
     inkscape:window-y="33"
     inkscape:window-maximized="0"
     inkscape:current-layer="svg1" />
  <path
     fill="currentColor"
     d="m 69.3,75.5 -4.2,-12.2 13.4,12.2 13.7,0.1 -15.5,-28.8 27.7,28.8 25.3,0.1 -24.5,-24.3 26.4,-9.8 c -5.4,-2.5 -10.2,-4.7 -17,-6.2 L 90,44.2 103.4,33.9 c -3.4,-0.3 -6.7,-0.4 -10,-0.4 -11.5,0 -23,1.9 -36,5.9 l 10.7,6.2 -34.9,10.5 24.4,6.8 -37.9,12.4 z m 11.6,49.9 c 7,0 14.2,-0.6 21.8,-1.9 l -12.1,-10.4 22.7,8.6 c 6.7,-1.6 12.3,-3 17.3,-4.9 L 104.9,105.7 129.1,83.5 H 104 L 74.7,112.9 91.9,83.5 H 77.6 L 61.9,96.4 68.5,83.5 H 0 l 48.5,13.8 -24.7,7 26.5,8.6 -5.4,6.7 c 11.9,3.9 23.7,5.8 36,5.8 z m 53.3,20.8 1.7,-24.4 c -5.1,1.8 -10.9,3.4 -18.7,5.2 l -4.1,22.1 -4.4,-20.3 c -20.4,3.7 -41.7,4.3 -62,1.5 6.1,5.9 13.8,11.1 22.9,15.6 7.9,-0.9 18.5,-2.9 18.6,-3 l 2.2,-0.4 -8.9,8.3 c 12.4,5.1 27.1,8.1 39.5,8.1 1.53333,0 3.03333,-0.0333 4.5,-0.1 1,-0.0667 2.03333,-0.13333 3.1,-0.2 2.1,-0.1 4.2,-0.2 6.2,-0.4 7,-4.4 14.5,-11 20,-17.5 z m 40.4,-50.6 c 0.6,-4 1,-8.1 1.2,-12.2 h -34.7 l -22.4,20.1 22,9.1 c 4.8,-2.2 9.5,-4.7 13.7,-7.3 7.8,-4.8 14,-8.6 19.7,-9.7 z m -23,58.8 c 6.1,-2.2 12,-5.1 17.5,-8.7 l -4.3,-5.9 c -3.5,4.7 -8.3,10.1 -13.2,14.6 z m 29.1,-97.3 c 4.8,0.133333 8.5,-1.033333 11.1,-3.5 2.3,-2.2 3.9,-5.5 4.6,-9.8 C 191.3,33.5 183.7,24.2 174.6,17 l -5.7,8.7 c 6.4,10.2 9.4,20 11.8,31.4 z m -6.1,6.6 h -0.5 C 168.4,62.6 162.2,58.8 154.4,54 150,51.3 145.1,48.3 139.8,45.5 l -22,7.9 23.9,22.3 34.1,0.2 c -0.2,-4.1 -0.6,-8.2 -1.2,-12.2 z m -64.9,-36.4 3.8,-16.9 4.3,18.7 c 6.4,1.6 12.6,3.9 19,6.9 l -1,-22.7 20.1,6.7 C 149.5,12.4 141.2,5 133.8,0.4 131,0.1 128.3,0 125.6,0 110.7,0 94.4,3.2 79.7,9.1 l 7.2,6.4 H 66.2 c -8.8,4.9 -15.9,10.8 -23.4,18 14.3,-6.3 34.8,-7.6 50,-7.6 5.6,0 11.2,0.5 16.9,1.4 z M 173,55.9 C 170.2,44.1 166.7,35.5 161.3,27.4 l -18.2,-6 1.5,18.5 c 4.9,2.6 9.2,5.2 13.6,7.9 5.7,3.6 10.7,6.6 14.8,8.1 z m -8.2,-36.2 4.4,-6.6 C 163.4,9.3 157.1,6.2 150.5,4 c 5,4.5 10.4,10.5 14.3,15.7 z m -23.4,118.6 20.6,-6.8 c 5.8,-8.8 8.8,-18.6 11,-28.1 -4.1,1.5 -9.3,4.7 -14.8,8.1 -3,1.8 -7.8,4.4 -13.5,6.3 z m 39.3,-36.1 c -2.2,10.3 -5.1,21.2 -11.6,31.7 l 5.9,7.5 c 8.9,-7.2 16.3,-16.3 21.3,-26.4 -0.7,-4 -2.3,-7.2 -4.5,-9.3 -2.6,-2.5 -6.3,-3.7 -11.1,-3.5 z m 16.1,-43.4 c -3.7,3.6 -8.7,5.5 -14.8,5.6 0.5,3.7 0.9,7.6 1,11.5 h 21.7 c -0.3,-7.6 -1.7,-15 -4.1,-22 -1.06667,1.866667 -2.33333,3.5 -3.8,4.9 z M 182,94.9 c 6.1,0.1 11.1,2 14.8,5.6 1.4,1.33333 2.63333,2.9 3.7,4.7 2.4,-7 3.8,-14.3 4.1,-21.8 H 183 c -0.1,3.9 -0.5,7.8 -1,11.5 z"
     id="path1"
     sodipodi:nodetypes="ccccccccccccsccccccscccccccccccccccccsccccccccccsccccccccccccccccccccccccccccccccccccccsccccsccccccccccccccccccccccccccccccccccc" />
</svg>
